Patient4_TMGait_0pt5_01_left_29_GRF.mot
version=1
nRows=65
nColumns=19
inDegrees=no
endheader
time	F1x	F1y	F1z	M1x	M1y	M1z	F2x	F2y	F2z	M2x	M2y	M2z	EC1x	EC1y	EC1z	EC2x	EC2y	EC2z
38.71	-13.7459	0.25219	-10.7498	1.472	7.1236	-1.8729	-21.0335	731.4655	-20.2304	271.5669	30.1798	686.2747	-0.0592	0.0182	-0.0073	-0.0462	0.0165	0.9585
38.7233	-9.2341	0.64166	-7.1986	0.79566	4.8092	-0.87	-22.2313	737.3566	-28.2164	276.2492	36.9008	688.2176	-0.0592	0.0182	-0.0073	-0.0462	0.0165	0.9585
38.7366	-5.4477	0.98828	-4.1932	0.21454	2.8332	0.054607	-23.1249	744.9549	-35.0379	281.2058	42.5552	691.4743	-0.0592	0.0182	-0.0073	-0.0462	0.0165	0.9585
38.7499	-2.5935	1.2763	-1.902	-0.23801	1.3154	0.83942	-23.6175	753.7242	-40.2441	286.0783	46.7372	695.6955	-0.0592	0.0182	-0.0073	-0.0462	0.0165	0.9585
38.7631	-0.62758	1.5025	-0.33016	-0.56	0.2711	1.455	-23.6778	762.8621	-43.8153	290.5443	49.4177	700.2329	-0.0592	0.0182	-0.0073	-0.0462	0.0165	0.9585
38.7764	0.57475	1.6711	0.63098	-0.76573	-0.37848	1.9157	-23.3162	771.4512	-45.9793	294.3118	50.7855	704.3048	-0.0592	0.0182	-0.0073	-0.0462	0.0165	0.9585
38.7897	1.2024	1.7704	1.1208	-0.8723	-0.71964	2.1918	-22.5589	778.601	-47.0563	297.134	51.1137	707.1311	-0.0592	0.0182	-0.0073	-0.0462	0.0165	0.9585
38.803	1.4173	1.7893	1.2888	-0.89496	-0.8534	2.2839	-21.4578	783.6073	-47.3852	298.8412	50.7043	708.0914	-0.0592	0.0182	-0.0073	-0.0462	0.0165	0.9585
38.8163	1.3646	1.6823	1.2568	-0.83913	-0.86099	2.1767	-20.0806	786.068	-47.2585	299.372	49.8261	706.8312	-0.0592	0.0182	-0.0073	-0.0462	0.0165	0.9585
38.8296	1.1612	1.3974	1.1247	-0.70296	-0.8098	1.847	-18.5058	785.9453	-46.91	298.7886	48.7067	703.3266	-0.0592	0.0182	-0.0073	-0.0462	0.0165	0.9585
38.8429	0.87824	0.88124	0.95926	-0.47832	-0.74536	1.2704	-16.7954	783.5133	-46.4958	297.2569	47.5004	697.8177	-0.0592	0.0182	-0.0073	-0.0462	0.0165	0.9585
38.8561	0.59243	0.077314	0.80297	-0.15197	-0.68938	0.40149	-14.9787	779.2659	-46.1366	295.0099	46.3178	690.725	-0.0592	0.0182	-0.0073	-0.0462	0.0165	0.9585
38.8694	0.34336	-1.0325	0.67342	0.28256	-0.64727	-0.76618	-13.0496	773.8477	-45.9004	292.3225	45.205	682.5925	-0.0592	0.0182	-0.0073	-0.0462	0.0165	0.9585
38.8827	0.19148	-2.4241	0.57928	0.81545	-0.60947	-2.2239	-10.9619	767.948	-45.8227	289.4757	44.1666	673.9899	-0.0592	0.0182	-0.0073	-0.0462	0.0165	0.9585
38.896	0.17973	-3.9811	0.51919	1.4035	-0.55754	-3.8539	-8.6646	762.1595	-45.9007	286.7056	43.1745	665.4088	-0.0592	0.0182	-0.0073	-0.0462	0.0165	0.9585
38.9093	0.37219	-5.4395	0.48041	1.9493	-0.45706	-5.3859	-6.0895	756.8752	-46.1262	284.1682	42.1921	657.1664	-0.0592	0.0182	-0.0073	-0.0462	0.0165	0.9585
38.9226	0.85028	-6.3418	0.44634	2.2846	-0.26251	-6.3559	-3.1719	752.2752	-46.4763	281.9325	41.1722	649.4025	-0.0592	0.0182	-0.0073	-0.0462	0.0165	0.9585
38.9359	1.6886	-5.9745	0.39645	2.1446	0.074461	-6.0405	0.12936	748.3393	-46.9365	279.9885	40.0874	642.0954	-0.0592	0.0182	-0.0073	-0.0462	0.0165	0.9585
38.9491	2.9615	-3.3412	0.31486	1.1595	0.5991	-3.4605	3.8061	744.8796	-47.4794	278.2612	38.9182	635.1077	-0.0592	0.0182	-0.0073	-0.0462	0.0165	0.9585
38.9624	4.6834	2.8291	0.18622	-1.1405	1.3371	2.6497	7.7753	741.5931	-48.0663	276.6297	37.6664	628.2371	-0.0592	0.0182	-0.0073	-0.0462	0.0165	0.9585
38.9757	6.7881	13.9439	0.00038476	-5.2811	2.273	13.7032	11.8895	738.0684	-48.6328	274.9344	36.3398	621.2114	-0.0592	0.0182	-0.0073	-0.0462	0.0165	0.9585
38.989	9.0365	31.3371	-0.241	-11.7677	3.311	31.0509	15.9362	733.7947	-49.0972	272.9793	34.9608	613.7141	-0.0592	0.0182	-0.0073	-0.0462	0.0165	0.9585
39.0023	10.9638	55.857	-0.51442	-20.9255	4.2492	55.5521	19.6813	728.1239	-49.3563	270.5203	33.5455	605.3272	-0.0592	0.0182	-0.0073	-0.0462	0.0165	0.9585
39.0156	11.7988	87.2142	-0.76871	-32.6489	4.7452	86.9221	22.8924	720.2915	-49.2967	267.2703	32.1044	595.5335	-0.0592	0.0182	-0.0073	-0.0462	0.0165	0.9585
39.0289	10.5338	123.2155	-0.90698	-46.1222	4.3328	122.9942	25.3764	709.4963	-48.7956	262.9311	30.6251	583.7637	-0.0592	0.0182	-0.0073	-0.0462	0.0165	0.9585
39.0421	6.9162	159.6905	-0.70387	-59.7709	2.6925	159.6395	27.0096	695.0818	-47.7645	257.2639	29.0879	569.5345	-0.0592	0.0182	-0.0073	-0.0462	0.0165	0.9585
39.0554	2.0689	191.5974	0.36724	-71.6759	-0.2662	191.7651	27.8168	676.8132	-46.1818	250.1935	27.4682	552.6428	-0.0592	0.0182	-0.0073	-0.0462	0.0165	0.9585
39.0687	-2.8547	215.7532	2.2662	-80.6433	-4.0357	216.0463	27.9949	655.0677	-44.1625	241.8708	25.7808	533.3159	-0.0592	0.0182	-0.0073	-0.0462	0.0165	0.9585
39.082	-7.244	232.6752	4.6358	-86.8714	-8.0256	232.8991	27.8221	630.7593	-41.9258	232.6388	24.0762	512.1902	-0.0592	0.0182	-0.0073	-0.0462	0.0165	0.9585
39.0953	-10.8924	245.1593	7.1535	-91.4247	-11.8349	245.0985	27.6029	604.9699	-39.7346	222.8996	22.4284	490.0247	-0.0592	0.0182	-0.0073	-0.0462	0.0165	0.9585
39.1086	-13.8525	256.5329	9.6108	-95.5679	-15.2773	255.9598	27.5689	578.6013	-37.7117	212.992	20.8309	467.4662	-0.0592	0.0182	-0.0073	-0.0462	0.0165	0.9585
39.1219	-16.2476	269.5571	11.8638	-100.3512	-18.2603	268.1869	27.8728	552.1632	-35.8129	203.1118	19.1874	444.8886	-0.0592	0.0182	-0.0073	-0.0462	0.0165	0.9585
39.1351	-18.1748	285.8981	13.8809	-106.4039	-20.7906	283.3858	28.5964	525.6924	-33.8604	193.2821	17.3313	422.3145	-0.0592	0.0182	-0.0073	-0.0462	0.0165	0.9585
39.1484	-19.6979	306.2097	15.6672	-113.9661	-22.9064	302.1679	29.7077	498.8046	-31.682	183.3641	15.145	399.4658	-0.0592	0.0182	-0.0073	-0.0462	0.0165	0.9585
39.1617	-20.859	330.4296	17.3548	-122.9941	-24.7604	324.4612	31.0762	470.8072	-29.192	173.0967	12.613	375.8262	-0.0592	0.0182	-0.0073	-0.0462	0.0165	0.9585
39.175	-21.6088	357.9711	19.0891	-133.247	-26.4855	349.6474	32.4552	440.9298	-26.4175	162.1798	9.8465	350.8405	-0.0592	0.0182	-0.0073	-0.0462	0.0165	0.9585
39.1883	-21.9597	387.9121	21.1318	-144.3565	-28.3336	376.8001	33.5268	408.5306	-23.4576	150.3552	7.0403	324.0549	-0.0592	0.0182	-0.0073	-0.0462	0.0165	0.9585
39.2016	-21.9874	419.3765	23.6604	-155.9798	-30.4926	405.0255	33.9505	373.2769	-20.4377	137.4768	4.42	295.2528	-0.0592	0.0182	-0.0073	-0.0462	0.0165	0.9585
39.2149	-21.7788	451.9521	26.8189	-167.9519	-33.1221	433.8908	33.4	335.2725	-17.4892	123.5635	2.2091	264.5584	-0.0592	0.0182	-0.0073	-0.0462	0.0165	0.9585
39.2281	-21.3553	485.7817	30.54	-180.3315	-36.1605	463.4707	31.6555	295.114	-14.7284	108.8246	0.58193	232.4428	-0.0592	0.0182	-0.0073	-0.0462	0.0165	0.9585
39.2414	-20.6812	521.3127	34.7404	-193.2925	-39.5181	494.1325	28.6461	253.8853	-12.2567	93.6552	-0.35219	199.7399	-0.0592	0.0182	-0.0073	-0.0462	0.0165	0.9585
39.2547	-19.7275	558.8725	39.2567	-206.9664	-43.0296	526.1339	24.5085	213.0413	-10.13	78.5935	-0.5951	167.5426	-0.0592	0.0182	-0.0073	-0.0462	0.0165	0.9585
39.268	-18.5064	598.2999	44.0137	-221.2944	-46.6319	559.3196	19.5869	174.1586	-8.3577	64.2281	-0.26383	137.0152	-0.0592	0.0182	-0.0073	-0.0462	0.0165	0.9585
39.2813	-17.0904	638.7801	48.9086	-235.9736	-50.2588	592.9641	14.3659	138.6111	-6.8904	51.0771	0.42439	109.1601	-0.0592	0.0182	-0.0073	-0.0462	0.0165	0.9585
39.2946	-15.5546	678.9072	53.8637	-250.4798	-53.8778	625.8408	9.3325	107.3036	-5.6534	39.4884	1.2343	84.627	-0.0592	0.0182	-0.0073	-0.0462	0.0165	0.9585
39.3079	-13.9484	716.8647	58.6674	-264.1469	-57.3173	656.3614	4.8431	80.6344	-4.5718	29.6214	1.9738	63.7132	-0.0592	0.0182	-0.0073	-0.0462	0.0165	0.9585
39.3211	-12.2679	750.7519	63.0954	-276.2818	-60.3766	682.8921	1.1269	58.5872	-3.6043	21.4772	2.5258	46.4122	-0.0592	0.0182	-0.0073	-0.0462	0.0165	0.9585
39.3344	-10.4783	778.8731	66.8649	-286.2755	-62.7821	703.9991	-1.6762	40.8558	-2.7309	14.9423	2.8243	32.5033	-0.0592	0.0182	-0.0073	-0.0462	0.0165	0.9585
39.3477	-8.5436	799.9151	69.8158	-293.6639	-64.3757	718.6211	-3.4817	26.9709	-1.9477	9.8398	2.8376	21.6267	-0.0592	0.0182	-0.0073	-0.0462	0.0165	0.9585
39.361	-6.4643	813.0454	71.821	-298.1643	-65.039	726.1258	-4.2746	16.4481	-1.2678	5.9845	2.5732	13.3947	-0.0592	0.0182	-0.0073	-0.0462	0.0165	0.9585
39.3743	-4.2768	817.9878	72.9154	-299.6881	-64.8199	726.3743	-4.1875	8.8729	-0.71685	3.2174	2.0999	7.4731	-0.0592	0.0182	-0.0073	-0.0462	0.0165	0.9585
39.3876	-2.0232	815.0937	73.132	-298.3757	-63.7717	719.7653	-3.5733	3.882	-0.30389	1.3994	1.5494	3.5718	-0.0592	0.0182	-0.0073	-0.0462	0.0165	0.9585
39.4009	0.25262	805.3602	72.6042	-294.6016	-62.0439	707.2454	-2.7624	0.98547	-0.020511	0.34772	1.0318	1.3156	-0.0592	0.0182	-0.0073	-0.0462	0.0165	0.9585
39.4141	2.5571	790.3891	71.4315	-288.9623	-59.7368	690.2341	-1.9561	-0.37497	0.15435	-0.14221	0.60127	0.26696	-0.0592	0.0182	-0.0073	-0.0462	0.0165	0.9585
39.4274	4.9208	772.1954	69.7894	-282.2	-57.0059	670.4726	-1.255	-0.71863	0.24273	-0.25895	0.27916	0.013705	-0.0592	0.0182	-0.0073	-0.0462	0.0165	0.9585
39.4407	7.4097	752.9324	67.8326	-275.1047	-53.9694	649.78	-0.7105	-0.44872	0.2736	-0.15086	0.060249	0.24881	-0.0592	0.0182	-0.0073	-0.0462	0.0165	0.9585
39.454	10.0804	734.6329	65.7664	-268.4166	-50.7881	629.859	-0.32011	0.1216	0.2665	0.068351	-0.072198	0.72268	-0.0592	0.0182	-0.0073	-0.0462	0.0165	0.9585
39.4673	12.9737	719.0444	63.7267	-262.7673	-47.5622	612.1639	-0.079989	0.79894	0.23808	0.32647	-0.13546	1.2929	-0.0592	0.0182	-0.0073	-0.0462	0.0165	0.9585
39.4806	16.117	707.4904	61.8435	-258.6306	-44.3901	597.7817	0.039309	1.4487	0.20024	0.57474	-0.14839	1.8393	-0.0592	0.0182	-0.0073	-0.0462	0.0165	0.9585
39.4939	19.5004	700.7821	60.1863	-256.2891	-41.3305	587.3792	0.06088	1.9975	0.1622	0.78599	-0.12544	2.2969	-0.0592	0.0182	-0.0073	-0.0462	0.0165	0.9585
39.5071	23.0704	699.1351	58.8189	-255.8051	-38.4541	581.1322	0.010403	2.3968	0.12575	0.94289	-0.07597	2.6231	-0.0592	0.0182	-0.0073	-0.0462	0.0165	0.9585
39.5204	26.732	702.2495	57.7579	-257.05	-35.8037	578.8006	-0.086643	2.6107	0.091396	1.0322	-0.0085041	2.7826	-0.0592	0.0182	-0.0073	-0.0462	0.0165	0.9585
39.5337	30.3738	709.4056	57.0029	-259.7398	-33.4182	579.8149	-0.22225	2.6076	0.05742	1.0397	0.073793	2.7475	-0.0592	0.0182	-0.0073	-0.0462	0.0165	0.9585
39.547	33.8758	719.5836	56.5355	-263.4839	-31.3274	583.3816	-0.3784	2.3268	0.025276	0.94105	0.16338	2.4552	-0.0592	0.0182	-0.0073	-0.0462	0.0165	0.9585
39.5603	37.147	731.6158	56.3226	-267.8402	-29.5427	588.5987	-0.55424	1.6889	-0.0039815	0.7037	0.25672	1.8304	-0.0592	0.0182	-0.0073	-0.0462	0.0165	0.9585
